# Blender v2.80 (sub 75) OBJ File: ''
# www.blender.org
mtllib grass.mtl
o allGrass_001
v 4.110080 2.203775 1.918458
v -0.213960 0.610988 0.191434
v -0.213690 0.424733 0.497204
v 0.119059 -0.149898 0.750823
v 0.267875 0.003437 0.326459
v 1.590040 6.214469 1.828312
v 3.089494 4.565245 0.423621
v 0.135747 0.288494 0.058381
v 0.040755 0.331029 0.408312
v -3.691560 2.507029 0.911605
v -0.720522 0.280732 0.445319
v -0.650454 0.448547 0.277883
v -3.077480 3.710121 -0.164148
v -0.634893 0.421003 0.427058
v -0.579013 0.466221 0.211577
v -3.077480 3.710121 -0.164148
v -0.634893 0.421003 0.427058
v -0.579013 0.466221 0.211577
v -2.260221 3.156320 1.263143
v -0.230922 0.578913 0.411926
v -0.692139 0.464982 0.041553
v -3.691560 2.507029 0.911605
v -0.720522 0.280732 0.445319
v -0.650454 0.448547 0.277883
v 3.089494 4.565245 0.423621
v 0.135747 0.288494 0.058381
v 0.040755 0.331029 0.408312
v 0.119059 -0.149898 0.750823
v 0.267875 0.003437 0.326459
v 1.590040 6.214469 1.828312
v 4.110080 2.203775 1.918458
v -0.213960 0.610988 0.191434
v -0.213690 0.424733 0.497204
v 0.317180 0.342312 -0.019961
v -1.474272 4.982093 -0.774769
v -0.035710 0.303448 -0.043448
v -0.222290 0.423445 0.339255
v -0.050065 0.558881 0.182839
v -0.921818 2.891420 1.920353
v -5.621029 4.449650 1.917019
v -0.222290 0.423445 0.339255
v -0.050065 0.558881 0.182839
v -0.921818 2.891420 1.920353
v 0.111160 4.012222 0.288052
v -0.052183 0.290753 0.413092
v 0.068865 0.251712 0.215068
v 0.317180 0.342312 -0.019961
v -1.474272 4.982093 -0.774769
v -0.035710 0.303448 -0.043448
v -1.515982 4.890312 -0.539693
v -0.076353 0.203704 -0.252106
v 0.233184 0.277729 -0.592161
v -1.358073 3.515145 -1.888699
v -0.069440 0.375825 -0.239870
v 0.118116 0.364834 -0.368317
v 0.625139 3.426386 3.853391
v -0.627200 0.489486 0.083270
v -1.040811 0.352376 0.279141
v -1.515982 4.890312 -0.539693
v -0.076353 0.203704 -0.252106
v 0.233184 0.277729 -0.592161
v 0.625139 3.426386 3.853391
v -0.627200 0.489486 0.083270
v -1.040811 0.352376 0.279141
v -1.358073 3.515145 -1.888699
v -0.069440 0.375825 -0.239870
v 0.118116 0.364834 -0.368317
v 0.111160 4.012222 0.288052
v -0.052183 0.290753 0.413092
v 0.068865 0.251712 0.215068
vt 0.250000 0.064894
vt 0.997877 0.000000
vt 0.999417 0.222222
vt 1.002425 0.000000
vt 0.998434 0.222222
vt 0.000345 0.128394
vt 0.250000 -0.158549
vt 0.997967 0.000000
vt 0.998616 0.222222
vt 0.250000 0.038955
vt 0.999963 0.000000
vt 0.999103 0.222222
vt 0.000196 0.125378
vt 1.000034 0.000000
vt 0.999546 0.222222
vt 0.000196 0.125378
vt 1.000034 0.000000
vt 0.999546 0.222222
vt 0.546830 0.222222
vt 1.002512 0.000000
vt 1.000000 0.222222
vt 0.250000 0.038955
vt 0.999963 0.000000
vt 0.999103 0.222222
vt 0.250000 -0.158549
vt 0.997967 0.000000
vt 0.998616 0.222222
vt 1.002425 0.000000
vt 0.998434 0.222222
vt 0.000345 0.128394
vt 0.250000 0.064894
vt 0.997877 0.000000
vt 0.999417 0.222222
vt 0.995612 0.222222
vt 0.250167 0.040856
vt 1.001724 0.000000
vt 0.998223 0.000000
vt 0.995460 0.222222
vt 0.374346 0.239629
vt -0.000358 0.136656
vt 0.998223 0.000000
vt 0.995460 0.222222
vt 0.374346 0.239629
vt 0.000204 0.103091
vt 1.000655 0.000000
vt 0.999902 0.222222
vt 0.995612 0.222222
vt 0.250167 0.040856
vt 1.001724 0.000000
vt -0.006893 0.112926
vt 1.000000 0.000000
vt 0.993782 0.222222
vt 0.000317 0.093654
vt 1.000118 0.000000
vt 0.999744 0.222222
vt 0.250000 0.138815
vt 0.995185 0.000000
vt 0.996598 0.222222
vt -0.006893 0.112926
vt 1.000000 0.000000
vt 0.993782 0.222222
vt 0.250000 0.138815
vt 0.995185 0.000000
vt 0.996598 0.222222
vt 0.000317 0.093654
vt 1.000118 0.000000
vt 0.999744 0.222222
vt 0.000204 0.103091
vt 1.000655 0.000000
vt 0.999902 0.222222
vn -0.5244 0.7292 0.4396
vn -0.4621 0.7412 0.4869
vn -0.4626 0.7720 0.4359
vn 0.9530 -0.2413 0.1832
vn 0.9367 -0.2571 0.2375
vn 0.9241 -0.3106 0.2225
vn -0.8120 0.5124 -0.2795
vn -0.7793 0.5615 -0.2782
vn -0.7782 0.5617 -0.2810
vn 0.5190 0.4843 0.7043
vn 0.4952 0.5186 0.6970
vn 0.4836 0.4911 0.7245
vn 0.7601 0.5653 0.3203
vn 0.7358 0.6037 0.3070
vn 0.7309 0.5996 0.3259
vn 0.1583 -0.2493 0.9554
vn 0.5003 0.6052 -0.6192
vn 0.4256 0.5678 -0.7046
vn -0.0766 0.1232 0.9894
vn -0.0778 0.1230 0.9893
vn -0.0757 0.1300 0.9886
vn 0.7530 -0.1902 0.6299
vn 0.7287 -0.2120 0.6512
vn 0.7407 -0.2017 0.6408
vn 0.1458 -0.2768 0.9498
vn 0.8487 -0.0618 0.5252
vn 0.8559 -0.0210 0.5168
vn 0.8467 -0.0182 0.5317
vn 0.6932 0.2374 0.6805
vn 0.6874 0.2529 0.6808
vn 0.5046 0.5229 0.6870
vn 0.4974 0.5543 0.6673
vn 0.4867 0.5548 0.6748
vn -0.4676 0.7585 -0.4538
vn -0.4692 0.7655 -0.4402
vn -0.4592 0.7678 -0.4468
usemtl aiStandardSurface2SG
s 1
f 1/1/1 2/2/2 3/3/3
f 4/4/4 5/5/5 6/6/6
f 7/7/7 8/8/8 9/9/9
f 10/10/10 11/11/11 12/12/12
f 13/13/13 14/14/14 15/15/15
f 16/16/13 17/17/14 18/18/15
f 19/19/16 20/20/17 21/21/18
f 22/22/10 23/23/11 24/24/12
f 25/25/7 26/26/8 27/27/9
f 28/28/4 29/29/5 30/30/6
f 31/31/1 32/32/2 33/33/3
f 34/34/19 35/35/20 36/36/21
f 37/37/22 38/38/23 39/39/24
f 40/40/25 20/20/17 19/19/16
f 41/41/22 42/42/23 43/43/24
f 44/44/26 45/45/27 46/46/28
f 47/47/19 48/48/20 49/49/21
f 50/50/29 51/51/30 52/52/30
f 53/53/31 54/54/32 55/55/33
f 56/56/34 57/57/35 58/58/36
f 59/59/29 60/60/30 61/61/30
f 62/62/34 63/63/35 64/64/36
f 65/65/31 66/66/32 67/67/33
f 68/68/26 69/69/27 70/70/28
